<mxfile host="app.diagrams.net" agent="Mozilla/5.0 (Windows NT 10.0; Win64; x64; rv:141.0) Gecko/20100101 Firefox/141.0" version="28.0.7">
  <diagram name="Page-1" id="fjlzoAvVWcoDmZmofRQ8">
    <mxGraphModel dx="1426" dy="725" grid="1" gridSize="10" guides="1" tooltips="1" connect="1" arrows="1" fold="1" page="1" pageScale="1" pageWidth="1400" pageHeight="850" background="#ffffff" math="0" shadow="0">
      <root>
        <mxCell id="0" />
        <mxCell id="1" parent="0" />
        <mxCell id="A4Cv5SWM3QmSny9gON7X-1" value="User" style="shape=umlActor;verticalLabelPosition=bottom;verticalAlign=top;html=1;" parent="1" vertex="1">
          <mxGeometry x="40" y="190" width="30" height="60" as="geometry" />
        </mxCell>
        <mxCell id="A4Cv5SWM3QmSny9gON7X-2" value="Mobile App" style="shape=umlLifeline;perimeter=lifelinePerimeter;whiteSpace=wrap;html=1;container=1;dropTarget=0;collapsible=0;recursiveResize=0;outlineConnect=0;portConstraint=eastwest;newEdgeStyle={&quot;curved&quot;:0,&quot;rounded&quot;:0};" parent="1" vertex="1">
          <mxGeometry x="160" y="160" width="100" height="500" as="geometry" />
        </mxCell>
        <mxCell id="A4Cv5SWM3QmSny9gON7X-16" value="" style="html=1;points=[[0,0,0,0,5],[0,1,0,0,-5],[1,0,0,0,5],[1,1,0,0,-5]];perimeter=orthogonalPerimeter;outlineConnect=0;targetShapes=umlLifeline;portConstraint=eastwest;newEdgeStyle={&quot;curved&quot;:0,&quot;rounded&quot;:0};" parent="A4Cv5SWM3QmSny9gON7X-2" vertex="1">
          <mxGeometry x="45" y="70" width="10" height="50" as="geometry" />
        </mxCell>
        <mxCell id="A4Cv5SWM3QmSny9gON7X-29" value="" style="html=1;points=[[0,0,0,0,5],[0,1,0,0,-5],[1,0,0,0,5],[1,1,0,0,-5]];perimeter=orthogonalPerimeter;outlineConnect=0;targetShapes=umlLifeline;portConstraint=eastwest;newEdgeStyle={&quot;curved&quot;:0,&quot;rounded&quot;:0};" parent="A4Cv5SWM3QmSny9gON7X-2" vertex="1">
          <mxGeometry x="45" y="150" width="10" height="320" as="geometry" />
        </mxCell>
        <mxCell id="A4Cv5SWM3QmSny9gON7X-3" value="API Gateway" style="shape=umlLifeline;perimeter=lifelinePerimeter;whiteSpace=wrap;html=1;container=1;dropTarget=0;collapsible=0;recursiveResize=0;outlineConnect=0;portConstraint=eastwest;newEdgeStyle={&quot;curved&quot;:0,&quot;rounded&quot;:0};" parent="1" vertex="1">
          <mxGeometry x="430" y="160" width="100" height="500" as="geometry" />
        </mxCell>
        <mxCell id="A4Cv5SWM3QmSny9gON7X-23" value="" style="html=1;points=[[0,0,0,0,5],[0,1,0,0,-5],[1,0,0,0,5],[1,1,0,0,-5]];perimeter=orthogonalPerimeter;outlineConnect=0;targetShapes=umlLifeline;portConstraint=eastwest;newEdgeStyle={&quot;curved&quot;:0,&quot;rounded&quot;:0};" parent="A4Cv5SWM3QmSny9gON7X-3" vertex="1">
          <mxGeometry x="45" y="70" width="10" height="50" as="geometry" />
        </mxCell>
        <mxCell id="A4Cv5SWM3QmSny9gON7X-31" value="" style="html=1;points=[[0,0,0,0,5],[0,1,0,0,-5],[1,0,0,0,5],[1,1,0,0,-5]];perimeter=orthogonalPerimeter;outlineConnect=0;targetShapes=umlLifeline;portConstraint=eastwest;newEdgeStyle={&quot;curved&quot;:0,&quot;rounded&quot;:0};" parent="A4Cv5SWM3QmSny9gON7X-3" vertex="1">
          <mxGeometry x="45" y="150" width="10" height="320" as="geometry" />
        </mxCell>
        <mxCell id="A4Cv5SWM3QmSny9gON7X-5" value="GCP Hosted Service Z" style="shape=umlLifeline;perimeter=lifelinePerimeter;whiteSpace=wrap;html=1;container=1;dropTarget=0;collapsible=0;recursiveResize=0;outlineConnect=0;portConstraint=eastwest;newEdgeStyle={&quot;curved&quot;:0,&quot;rounded&quot;:0};" parent="1" vertex="1">
          <mxGeometry x="670" y="160" width="100" height="500" as="geometry" />
        </mxCell>
        <mxCell id="A4Cv5SWM3QmSny9gON7X-62" value="" style="html=1;points=[[0,0,0,0,5],[0,1,0,0,-5],[1,0,0,0,5],[1,1,0,0,-5]];perimeter=orthogonalPerimeter;outlineConnect=0;targetShapes=umlLifeline;portConstraint=eastwest;newEdgeStyle={&quot;curved&quot;:0,&quot;rounded&quot;:0};" parent="A4Cv5SWM3QmSny9gON7X-5" vertex="1">
          <mxGeometry x="45" y="150" width="10" height="320" as="geometry" />
        </mxCell>
        <mxCell id="A4Cv5SWM3QmSny9gON7X-61" value="" style="html=1;points=[[0,0,0,0,5],[0,1,0,0,-5],[1,0,0,0,5],[1,1,0,0,-5]];perimeter=orthogonalPerimeter;outlineConnect=0;targetShapes=umlLifeline;portConstraint=eastwest;newEdgeStyle={&quot;curved&quot;:0,&quot;rounded&quot;:0};" parent="A4Cv5SWM3QmSny9gON7X-5" vertex="1">
          <mxGeometry x="50" y="240" width="10" height="220" as="geometry" />
        </mxCell>
        <mxCell id="A4Cv5SWM3QmSny9gON7X-34" value="" style="html=1;points=[[0,0,0,0,5],[0,1,0,0,-5],[1,0,0,0,5],[1,1,0,0,-5]];perimeter=orthogonalPerimeter;outlineConnect=0;targetShapes=umlLifeline;portConstraint=eastwest;newEdgeStyle={&quot;curved&quot;:0,&quot;rounded&quot;:0};" parent="A4Cv5SWM3QmSny9gON7X-5" vertex="1">
          <mxGeometry x="50" y="170" width="10" height="30" as="geometry" />
        </mxCell>
        <mxCell id="A4Cv5SWM3QmSny9gON7X-38" value="Validate JWT Access Token" style="html=1;align=left;spacingLeft=2;endArrow=block;rounded=0;edgeStyle=orthogonalEdgeStyle;curved=0;rounded=0;" parent="A4Cv5SWM3QmSny9gON7X-5" source="A4Cv5SWM3QmSny9gON7X-34" target="A4Cv5SWM3QmSny9gON7X-34" edge="1">
          <mxGeometry relative="1" as="geometry">
            <mxPoint x="60" y="160" as="sourcePoint" />
            <Array as="points" />
            <mxPoint x="95" y="180" as="targetPoint" />
          </mxGeometry>
        </mxCell>
        <mxCell id="A4Cv5SWM3QmSny9gON7X-67" value="" style="html=1;points=[[0,0,0,0,5],[0,1,0,0,-5],[1,0,0,0,5],[1,1,0,0,-5]];perimeter=orthogonalPerimeter;outlineConnect=0;targetShapes=umlLifeline;portConstraint=eastwest;newEdgeStyle={&quot;curved&quot;:0,&quot;rounded&quot;:0};" parent="A4Cv5SWM3QmSny9gON7X-5" vertex="1">
          <mxGeometry x="45" y="70" width="10" height="50" as="geometry" />
        </mxCell>
        <mxCell id="A4Cv5SWM3QmSny9gON7X-68" value="" style="html=1;points=[[0,0,0,0,5],[0,1,0,0,-5],[1,0,0,0,5],[1,1,0,0,-5]];perimeter=orthogonalPerimeter;outlineConnect=0;targetShapes=umlLifeline;portConstraint=eastwest;newEdgeStyle={&quot;curved&quot;:0,&quot;rounded&quot;:0};" parent="A4Cv5SWM3QmSny9gON7X-5" vertex="1">
          <mxGeometry x="50" y="80" width="10" height="30" as="geometry" />
        </mxCell>
        <mxCell id="A4Cv5SWM3QmSny9gON7X-69" value="Validate Credentials" style="html=1;align=left;spacingLeft=2;endArrow=block;rounded=0;edgeStyle=orthogonalEdgeStyle;curved=0;rounded=0;" parent="A4Cv5SWM3QmSny9gON7X-5" source="A4Cv5SWM3QmSny9gON7X-68" target="A4Cv5SWM3QmSny9gON7X-68" edge="1">
          <mxGeometry relative="1" as="geometry">
            <mxPoint x="-15" y="160" as="sourcePoint" />
            <Array as="points" />
            <mxPoint x="-10" y="190" as="targetPoint" />
          </mxGeometry>
        </mxCell>
        <mxCell id="A4Cv5SWM3QmSny9gON7X-7" value="Internal Service A" style="shape=umlLifeline;perimeter=lifelinePerimeter;whiteSpace=wrap;html=1;container=1;dropTarget=0;collapsible=0;recursiveResize=0;outlineConnect=0;portConstraint=eastwest;newEdgeStyle={&quot;curved&quot;:0,&quot;rounded&quot;:0};" parent="1" vertex="1">
          <mxGeometry x="920" y="160" width="100" height="500" as="geometry" />
        </mxCell>
        <mxCell id="A4Cv5SWM3QmSny9gON7X-52" value="" style="html=1;points=[[0,0,0,0,5],[0,1,0,0,-5],[1,0,0,0,5],[1,1,0,0,-5]];perimeter=orthogonalPerimeter;outlineConnect=0;targetShapes=umlLifeline;portConstraint=eastwest;newEdgeStyle={&quot;curved&quot;:0,&quot;rounded&quot;:0};" parent="A4Cv5SWM3QmSny9gON7X-7" vertex="1">
          <mxGeometry x="45" y="240" width="10" height="220" as="geometry" />
        </mxCell>
        <mxCell id="A4Cv5SWM3QmSny9gON7X-41" value="" style="html=1;points=[[0,0,0,0,5],[0,1,0,0,-5],[1,0,0,0,5],[1,1,0,0,-5]];perimeter=orthogonalPerimeter;outlineConnect=0;targetShapes=umlLifeline;portConstraint=eastwest;newEdgeStyle={&quot;curved&quot;:0,&quot;rounded&quot;:0};" parent="A4Cv5SWM3QmSny9gON7X-7" vertex="1">
          <mxGeometry x="50" y="260" width="10" height="40" as="geometry" />
        </mxCell>
        <mxCell id="A4Cv5SWM3QmSny9gON7X-71" value="" style="html=1;points=[[0,0,0,0,5],[0,1,0,0,-5],[1,0,0,0,5],[1,1,0,0,-5]];perimeter=orthogonalPerimeter;outlineConnect=0;targetShapes=umlLifeline;portConstraint=eastwest;newEdgeStyle={&quot;curved&quot;:0,&quot;rounded&quot;:0};" parent="A4Cv5SWM3QmSny9gON7X-7" vertex="1">
          <mxGeometry x="50" y="340" width="10" height="110" as="geometry" />
        </mxCell>
        <mxCell id="A4Cv5SWM3QmSny9gON7X-9" value="Internal Service B" style="shape=umlLifeline;perimeter=lifelinePerimeter;whiteSpace=wrap;html=1;container=1;dropTarget=0;collapsible=0;recursiveResize=0;outlineConnect=0;portConstraint=eastwest;newEdgeStyle={&quot;curved&quot;:0,&quot;rounded&quot;:0};" parent="1" vertex="1">
          <mxGeometry x="1230" y="160" width="100" height="500" as="geometry" />
        </mxCell>
        <mxCell id="A4Cv5SWM3QmSny9gON7X-53" value="" style="html=1;points=[[0,0,0,0,5],[0,1,0,0,-5],[1,0,0,0,5],[1,1,0,0,-5]];perimeter=orthogonalPerimeter;outlineConnect=0;targetShapes=umlLifeline;portConstraint=eastwest;newEdgeStyle={&quot;curved&quot;:0,&quot;rounded&quot;:0};" parent="A4Cv5SWM3QmSny9gON7X-9" vertex="1">
          <mxGeometry x="45" y="340" width="10" height="110" as="geometry" />
        </mxCell>
        <mxCell id="A4Cv5SWM3QmSny9gON7X-60" value="" style="html=1;points=[[0,0,0,0,5],[0,1,0,0,-5],[1,0,0,0,5],[1,1,0,0,-5]];perimeter=orthogonalPerimeter;outlineConnect=0;targetShapes=umlLifeline;portConstraint=eastwest;newEdgeStyle={&quot;curved&quot;:0,&quot;rounded&quot;:0};" parent="A4Cv5SWM3QmSny9gON7X-9" vertex="1">
          <mxGeometry x="40" y="375" width="10" height="40" as="geometry" />
        </mxCell>
        <mxCell id="A4Cv5SWM3QmSny9gON7X-11" value="GCP IAM" style="shape=umlLifeline;perimeter=lifelinePerimeter;whiteSpace=wrap;html=1;container=1;dropTarget=0;collapsible=0;recursiveResize=0;outlineConnect=0;portConstraint=eastwest;newEdgeStyle={&quot;curved&quot;:0,&quot;rounded&quot;:0};" parent="1" vertex="1">
          <mxGeometry x="1080" y="160" width="100" height="500" as="geometry" />
        </mxCell>
        <mxCell id="A4Cv5SWM3QmSny9gON7X-49" value="" style="html=1;points=[[0,0,0,0,5],[0,1,0,0,-5],[1,0,0,0,5],[1,1,0,0,-5]];perimeter=orthogonalPerimeter;outlineConnect=0;targetShapes=umlLifeline;portConstraint=eastwest;newEdgeStyle={&quot;curved&quot;:0,&quot;rounded&quot;:0};" parent="A4Cv5SWM3QmSny9gON7X-11" vertex="1">
          <mxGeometry x="45" y="260" width="10" height="40" as="geometry" />
        </mxCell>
        <mxCell id="A4Cv5SWM3QmSny9gON7X-56" value="" style="html=1;points=[[0,0,0,0,5],[0,1,0,0,-5],[1,0,0,0,5],[1,1,0,0,-5]];perimeter=orthogonalPerimeter;outlineConnect=0;targetShapes=umlLifeline;portConstraint=eastwest;newEdgeStyle={&quot;curved&quot;:0,&quot;rounded&quot;:0};" parent="A4Cv5SWM3QmSny9gON7X-11" vertex="1">
          <mxGeometry x="45" y="375" width="10" height="40" as="geometry" />
        </mxCell>
        <mxCell id="A4Cv5SWM3QmSny9gON7X-13" value="Login (User/Password)" style="html=1;verticalAlign=bottom;endArrow=block;curved=0;rounded=0;exitX=0.5;exitY=0.5;exitDx=0;exitDy=0;exitPerimeter=0;" parent="1" source="A4Cv5SWM3QmSny9gON7X-1" target="A4Cv5SWM3QmSny9gON7X-2" edge="1">
          <mxGeometry width="80" relative="1" as="geometry">
            <mxPoint x="110" y="250" as="sourcePoint" />
            <mxPoint x="190" y="250" as="targetPoint" />
          </mxGeometry>
        </mxCell>
        <mxCell id="A4Cv5SWM3QmSny9gON7X-17" value="User Credentials" style="html=1;verticalAlign=bottom;endArrow=classic;curved=0;rounded=0;exitX=1;exitY=0;exitDx=0;exitDy=5;exitPerimeter=0;entryX=0;entryY=0;entryDx=0;entryDy=5;entryPerimeter=0;endFill=1;" parent="1" source="A4Cv5SWM3QmSny9gON7X-16" target="A4Cv5SWM3QmSny9gON7X-23" edge="1">
          <mxGeometry width="80" relative="1" as="geometry">
            <mxPoint x="215" y="260" as="sourcePoint" />
            <mxPoint x="385" y="260" as="targetPoint" />
          </mxGeometry>
        </mxCell>
        <mxCell id="A4Cv5SWM3QmSny9gON7X-22" value="&lt;div&gt;Access&amp;nbsp; &amp;amp; Refresh Tokens (JWT)&lt;/div&gt;" style="html=1;verticalAlign=bottom;endArrow=open;dashed=1;endSize=8;curved=0;rounded=0;exitX=0;exitY=1;exitDx=0;exitDy=-5;exitPerimeter=0;entryX=1;entryY=1;entryDx=0;entryDy=-5;entryPerimeter=0;" parent="1" source="A4Cv5SWM3QmSny9gON7X-67" target="A4Cv5SWM3QmSny9gON7X-23" edge="1">
          <mxGeometry relative="1" as="geometry">
            <mxPoint x="640" y="470" as="sourcePoint" />
            <mxPoint x="560" y="470" as="targetPoint" />
          </mxGeometry>
        </mxCell>
        <mxCell id="A4Cv5SWM3QmSny9gON7X-24" value="Forward User Credentials" style="html=1;verticalAlign=bottom;endArrow=classic;curved=0;rounded=0;exitX=1;exitY=0;exitDx=0;exitDy=5;exitPerimeter=0;endFill=1;entryX=0;entryY=0;entryDx=0;entryDy=5;entryPerimeter=0;" parent="1" source="A4Cv5SWM3QmSny9gON7X-23" target="A4Cv5SWM3QmSny9gON7X-67" edge="1">
          <mxGeometry width="80" relative="1" as="geometry">
            <mxPoint x="490" y="610" as="sourcePoint" />
            <mxPoint x="660" y="610" as="targetPoint" />
          </mxGeometry>
        </mxCell>
        <mxCell id="A4Cv5SWM3QmSny9gON7X-25" value="Forward Access &amp;amp; Refresh Tokens (JWT)" style="html=1;verticalAlign=bottom;endArrow=open;dashed=1;endSize=8;curved=0;rounded=0;entryX=1;entryY=1;entryDx=0;entryDy=-5;entryPerimeter=0;exitX=0;exitY=1;exitDx=0;exitDy=-5;exitPerimeter=0;" parent="1" source="A4Cv5SWM3QmSny9gON7X-23" target="A4Cv5SWM3QmSny9gON7X-16" edge="1">
          <mxGeometry relative="1" as="geometry">
            <mxPoint x="660" y="400" as="sourcePoint" />
            <mxPoint x="490" y="400" as="targetPoint" />
          </mxGeometry>
        </mxCell>
        <mxCell id="A4Cv5SWM3QmSny9gON7X-30" value="&lt;div&gt;Request Data&lt;/div&gt;&lt;div&gt;(Using JWT Access Token)&lt;/div&gt;" style="html=1;verticalAlign=bottom;endArrow=classic;curved=0;rounded=0;entryX=0;entryY=0;entryDx=0;entryDy=5;entryPerimeter=0;endFill=1;exitX=1;exitY=0;exitDx=0;exitDy=5;exitPerimeter=0;" parent="1" source="A4Cv5SWM3QmSny9gON7X-29" target="A4Cv5SWM3QmSny9gON7X-31" edge="1">
          <mxGeometry width="80" relative="1" as="geometry">
            <mxPoint x="230" y="320" as="sourcePoint" />
            <mxPoint x="470.5" y="320" as="targetPoint" />
            <mxPoint as="offset" />
          </mxGeometry>
        </mxCell>
        <mxCell id="A4Cv5SWM3QmSny9gON7X-33" value="&lt;div&gt;Forward Request&lt;/div&gt;&lt;div&gt;(With JWT Access Token)&lt;/div&gt;" style="html=1;verticalAlign=bottom;endArrow=classic;curved=0;rounded=0;endFill=1;exitX=1;exitY=0;exitDx=0;exitDy=5;exitPerimeter=0;entryX=0;entryY=0;entryDx=0;entryDy=5;entryPerimeter=0;" parent="1" source="A4Cv5SWM3QmSny9gON7X-31" target="A4Cv5SWM3QmSny9gON7X-62" edge="1">
          <mxGeometry width="80" relative="1" as="geometry">
            <mxPoint x="440" y="310" as="sourcePoint" />
            <mxPoint x="725" y="315" as="targetPoint" />
            <mxPoint as="offset" />
          </mxGeometry>
        </mxCell>
        <mxCell id="A4Cv5SWM3QmSny9gON7X-43" value="&lt;div&gt;Request Data&lt;/div&gt;&lt;div&gt;(Using Z Service Account [Signed JWT])&lt;/div&gt;" style="html=1;verticalAlign=bottom;endArrow=classic;curved=0;rounded=0;endFill=1;entryX=0;entryY=0;entryDx=0;entryDy=5;entryPerimeter=0;" parent="1" source="A4Cv5SWM3QmSny9gON7X-61" target="A4Cv5SWM3QmSny9gON7X-52" edge="1">
          <mxGeometry width="80" relative="1" as="geometry">
            <mxPoint x="800" y="360" as="sourcePoint" />
            <mxPoint x="890" y="460" as="targetPoint" />
            <mxPoint as="offset" />
          </mxGeometry>
        </mxCell>
        <mxCell id="A4Cv5SWM3QmSny9gON7X-48" value="Validate Caller JWT" style="html=1;verticalAlign=bottom;endArrow=classic;curved=0;rounded=0;endFill=1;entryX=0;entryY=0;entryDx=0;entryDy=5;entryPerimeter=0;exitX=1;exitY=0;exitDx=0;exitDy=5;exitPerimeter=0;" parent="1" source="A4Cv5SWM3QmSny9gON7X-41" target="A4Cv5SWM3QmSny9gON7X-49" edge="1">
          <mxGeometry width="80" relative="1" as="geometry">
            <mxPoint x="1040" y="410" as="sourcePoint" />
            <mxPoint x="1210" y="490" as="targetPoint" />
            <mxPoint as="offset" />
          </mxGeometry>
        </mxCell>
        <mxCell id="A4Cv5SWM3QmSny9gON7X-51" value="Authorization Success" style="html=1;verticalAlign=bottom;endArrow=open;dashed=1;endSize=8;curved=0;rounded=0;exitX=0;exitY=1;exitDx=0;exitDy=-5;exitPerimeter=0;entryX=1;entryY=1;entryDx=0;entryDy=-5;entryPerimeter=0;" parent="1" source="A4Cv5SWM3QmSny9gON7X-49" target="A4Cv5SWM3QmSny9gON7X-41" edge="1">
          <mxGeometry relative="1" as="geometry">
            <mxPoint x="1140" y="500" as="sourcePoint" />
            <mxPoint x="980" y="445" as="targetPoint" />
          </mxGeometry>
        </mxCell>
        <mxCell id="A4Cv5SWM3QmSny9gON7X-54" value="&lt;div&gt;Request Data&lt;/div&gt;&lt;div&gt;(Using A Service Account [Signed JWT])&lt;/div&gt;" style="html=1;verticalAlign=bottom;endArrow=classic;curved=0;rounded=0;endFill=1;entryX=0;entryY=0;entryDx=0;entryDy=5;entryPerimeter=0;exitX=1;exitY=0;exitDx=0;exitDy=5;exitPerimeter=0;" parent="1" source="A4Cv5SWM3QmSny9gON7X-71" target="A4Cv5SWM3QmSny9gON7X-53" edge="1">
          <mxGeometry width="80" relative="1" as="geometry">
            <mxPoint x="990" y="480" as="sourcePoint" />
            <mxPoint x="1220" y="480" as="targetPoint" />
            <mxPoint as="offset" />
          </mxGeometry>
        </mxCell>
        <mxCell id="A4Cv5SWM3QmSny9gON7X-57" value="Validate Caller JWT" style="html=1;verticalAlign=bottom;endArrow=none;curved=0;rounded=0;endFill=0;exitX=1;exitY=0;exitDx=0;exitDy=5;exitPerimeter=0;startArrow=classic;startFill=1;entryX=0;entryY=0;entryDx=0;entryDy=5;entryPerimeter=0;" parent="1" source="A4Cv5SWM3QmSny9gON7X-56" target="A4Cv5SWM3QmSny9gON7X-60" edge="1">
          <mxGeometry width="80" relative="1" as="geometry">
            <mxPoint x="1140" y="550" as="sourcePoint" />
            <mxPoint x="1230" y="570" as="targetPoint" />
            <mxPoint as="offset" />
          </mxGeometry>
        </mxCell>
        <mxCell id="A4Cv5SWM3QmSny9gON7X-58" value="Authorization Success" style="html=1;verticalAlign=bottom;endArrow=none;dashed=1;endSize=8;curved=0;rounded=0;entryX=1;entryY=1;entryDx=0;entryDy=-5;entryPerimeter=0;startArrow=open;startFill=0;endFill=0;exitX=0;exitY=1;exitDx=0;exitDy=-5;exitPerimeter=0;" parent="1" source="A4Cv5SWM3QmSny9gON7X-60" target="A4Cv5SWM3QmSny9gON7X-56" edge="1">
          <mxGeometry relative="1" as="geometry">
            <mxPoint x="1300" y="560" as="sourcePoint" />
            <mxPoint x="1150" y="560" as="targetPoint" />
          </mxGeometry>
        </mxCell>
        <mxCell id="A4Cv5SWM3QmSny9gON7X-59" value="Return Requested Data" style="html=1;verticalAlign=bottom;endArrow=open;dashed=1;endSize=8;curved=0;rounded=0;exitX=0;exitY=1;exitDx=0;exitDy=-5;exitPerimeter=0;entryX=1;entryY=1;entryDx=0;entryDy=-5;entryPerimeter=0;" parent="1" source="A4Cv5SWM3QmSny9gON7X-53" target="A4Cv5SWM3QmSny9gON7X-71" edge="1">
          <mxGeometry relative="1" as="geometry">
            <mxPoint x="1200" y="610" as="sourcePoint" />
            <mxPoint x="1050" y="610" as="targetPoint" />
          </mxGeometry>
        </mxCell>
        <mxCell id="A4Cv5SWM3QmSny9gON7X-63" value="Return Requested Data" style="html=1;verticalAlign=bottom;endArrow=open;dashed=1;endSize=8;curved=0;rounded=0;exitX=0;exitY=1;exitDx=0;exitDy=-5;exitPerimeter=0;entryX=1;entryY=1;entryDx=0;entryDy=-5;entryPerimeter=0;" parent="1" source="A4Cv5SWM3QmSny9gON7X-52" target="A4Cv5SWM3QmSny9gON7X-61" edge="1">
          <mxGeometry relative="1" as="geometry">
            <mxPoint x="1010" y="630" as="sourcePoint" />
            <mxPoint x="710" y="630" as="targetPoint" />
          </mxGeometry>
        </mxCell>
        <mxCell id="A4Cv5SWM3QmSny9gON7X-64" value="Return Requested Data" style="html=1;verticalAlign=bottom;endArrow=open;dashed=1;endSize=8;curved=0;rounded=0;exitX=0;exitY=1;exitDx=0;exitDy=-5;exitPerimeter=0;entryX=1;entryY=1;entryDx=0;entryDy=-5;entryPerimeter=0;" parent="1" source="A4Cv5SWM3QmSny9gON7X-62" target="A4Cv5SWM3QmSny9gON7X-31" edge="1">
          <mxGeometry relative="1" as="geometry">
            <mxPoint x="730" y="570" as="sourcePoint" />
            <mxPoint x="490" y="570" as="targetPoint" />
          </mxGeometry>
        </mxCell>
        <mxCell id="A4Cv5SWM3QmSny9gON7X-65" value="Forward Requested Data" style="html=1;verticalAlign=bottom;endArrow=open;dashed=1;endSize=8;curved=0;rounded=0;exitX=0;exitY=1;exitDx=0;exitDy=-5;exitPerimeter=0;entryX=1;entryY=1;entryDx=0;entryDy=-5;entryPerimeter=0;" parent="1" source="A4Cv5SWM3QmSny9gON7X-31" target="A4Cv5SWM3QmSny9gON7X-29" edge="1">
          <mxGeometry relative="1" as="geometry">
            <mxPoint x="460" y="530" as="sourcePoint" />
            <mxPoint x="230" y="530" as="targetPoint" />
          </mxGeometry>
        </mxCell>
        <mxCell id="A4Cv5SWM3QmSny9gON7X-66" value="&lt;h1 style=&quot;margin-top: 0px;&quot;&gt;&lt;font style=&quot;font-size: 18px;&quot;&gt;Service-to-Service (S2S) Internal Calls&lt;/font&gt;&lt;/h1&gt;&lt;p&gt;A Cloud Hosted Service Z calling an Internal Service A to request data and Internal Service A calling Internal Service B to request additional data.&lt;/p&gt;" style="text;html=1;whiteSpace=wrap;overflow=hidden;rounded=0;" parent="1" vertex="1">
          <mxGeometry x="40" y="40" width="490" height="90" as="geometry" />
        </mxCell>
      </root>
    </mxGraphModel>
  </diagram>
</mxfile>
